<svg xmlns="http://www.w3.org/2000/svg" viewBox="0 0 16 16" shape-rendering="crispEdges">
  <rect x="2" y="3" width="4" height="4" fill="#fbf0d2"/><rect x="6" y="1" width="4" height="5" fill="#fff6df"/><rect x="10" y="3" width="4" height="4" fill="#fbf0d2"/>
  <rect x="3" y="2" width="2" height="1" fill="#fbf0d2"/><rect x="11" y="2" width="2" height="1" fill="#fbf0d2"/><rect x="7" y="0" width="2" height="1" fill="#fff6df"/>
  <path d="M1 3h1v1H1zM5 2h1v1H5zM6 0h1v1H6zM9 0h1v1H9zM10 2h1v1h-1zM14 3h1v1h-1z" fill="#3b1a10"/>
  <path d="M1 4h1v3H1zM14 4h1v3h-1zM2 2h1v1H2zM3 1h2v1H3zM11 1h2v1h-2zM13 2h1v1h-1zM7 -1h2v1H7z" fill="#3b1a10"/>
  <rect x="1" y="7" width="14" height="2" fill="#9b2a1f"/>
  <path d="M2 9h12l-1 6H3z" fill="#f4e7c8"/>
  <path d="M2 9h3v6H3zM7 9h2v6H7zM11 9h3l-1 6h-2z" fill="#c8352a"/>
  <path d="M1 7h14v1H1zM1 8h1v1H1zM14 8h1v1h-1zM2 9h1v6H2zM13 9h1v6h-1zM3 15h10v1H3z" fill="#3b1a10"/>
</svg>
